<svg width="16" height="17" viewBox="0 0 16 17" fill="none" xmlns="http://www.w3.org/2000/svg">
<path fill-rule="evenodd" clip-rule="evenodd" d="M14.2992 5.67787C13.944 7.07722 12.6911 8.1112 11.2 8.1112C9.70893 8.1112 8.45605 7.07722 8.10081 5.67787L0.800001 5.67787C0.358173 5.67787 0 5.31472 0 4.86676C0 4.41879 0.358173 4.05565 0.800001 4.05565L8.10081 4.05565C8.45605 2.6563 9.70893 1.62231 11.2 1.62231C12.6911 1.62231 13.944 2.6563 14.2992 4.05565L15.2 4.05565C15.6418 4.05565 16 4.41879 16 4.86676C16 5.31472 15.6418 5.67787 15.2 5.67787L14.2992 5.67787ZM12.8 4.86676C12.8 3.97083 12.0837 3.24454 11.2 3.24454C10.3163 3.24454 9.6 3.97083 9.6 4.86676C9.6 5.76268 10.3163 6.48898 11.2 6.48898C12.0837 6.48898 12.8 5.76269 12.8 4.86676ZM4.8 8.1112C3.30893 8.1112 2.05605 9.14518 1.70082 10.5445L0.800001 10.5445C0.358173 10.5445 0 10.9077 0 11.3556C0 11.8036 0.358171 12.1668 0.799999 12.1668L1.70082 12.1668C2.05605 13.5661 3.30893 14.6001 4.8 14.6001C6.29107 14.6001 7.54395 13.5661 7.89919 12.1668H15.2C15.6418 12.1668 16 11.8036 16 11.3556C16 10.9077 15.6418 10.5445 15.2 10.5445H7.89919C7.54395 9.14518 6.29107 8.1112 4.8 8.1112ZM4.8 12.9779C3.91635 12.9779 3.2 12.2516 3.2 11.3556C3.2 10.4597 3.91635 9.73342 4.8 9.73342C5.68366 9.73342 6.4 10.4597 6.4 11.3556C6.4 12.2516 5.68366 12.9779 4.8 12.9779Z" fill="#E0E0E0"/>
</svg>
