<svg width="16" height="17" viewBox="0 0 16 17" fill="none" xmlns="http://www.w3.org/2000/svg">
<g clip-path="url(#clip0)">
<path fill-rule="evenodd" clip-rule="evenodd" d="M6.66706 16.7779C5.7834 16.7779 5.06706 16.0516 5.06706 15.1557V10.0734C3.50435 9.43978 2.40039 7.89059 2.40039 6.07997V4.20567C2.40039 2.18983 4.01216 0.555664 6.00039 0.555664C6.88405 0.555664 7.60039 1.28196 7.60039 2.17789V5.01678C7.60039 5.24076 7.77948 5.42233 8.00039 5.42233C8.2213 5.42233 8.40039 5.24076 8.40039 5.01678V2.17789C8.40039 1.28196 9.11674 0.555664 10.0004 0.555664C11.9886 0.555664 13.6004 2.18983 13.6004 4.20567V6.07997C13.6004 7.89058 12.4964 9.43978 10.9337 10.0734V15.1557C10.9337 16.0516 10.2174 16.7779 9.33372 16.7779H6.66706ZM9.33372 15.1557H6.66706V8.78367C6.66706 8.76889 6.65524 8.75691 6.64066 8.75691C5.18248 8.75691 4.00039 7.5584 4.00039 6.07997V4.20567C4.00039 3.74908 4.14923 3.32774 4.40039 2.9888C4.76528 2.49639 5.34615 2.17789 6.00039 2.17789V5.01678C6.00039 6.13669 6.89582 7.04456 8.00039 7.04456C9.10496 7.04456 10.0004 6.13669 10.0004 5.01678V2.17789C10.6546 2.17789 11.2355 2.49639 11.6004 2.9888C11.8516 3.32774 12.0004 3.74908 12.0004 4.20567V6.07997C12.0004 7.5584 10.8183 8.75691 9.36013 8.75691C9.34555 8.75691 9.33372 8.76889 9.33372 8.78368V15.1557Z" fill="#E0E0E0"/>
</g>
<defs>
<clipPath id="clip0">
<rect width="16" height="16.2222" fill="white" transform="translate(0 0.555664)"/>
</clipPath>
</defs>
</svg>
