<svg width="16" height="18" viewBox="0 0 16 18" fill="none" xmlns="http://www.w3.org/2000/svg">
<path fill-rule="evenodd" clip-rule="evenodd" d="M8 8.9862C6.67452 8.9862 5.6 10.0756 5.6 11.4195V12.3465V14.664C5.6 15.1119 5.24183 15.4751 4.8 15.4751C4.35817 15.4751 4 15.1119 4 14.664V12.3465V11.4195L4.0001 11.3908C3.86943 11.4097 3.73584 11.4195 3.6 11.4195C3.51196 11.4195 3.42486 11.4154 3.33889 11.4074C3.29378 11.4154 3.24737 11.4195 3.2 11.4195H2.85714C2.16284 11.4195 1.6 11.9902 1.6 12.6941V13.8529C1.6 14.3008 1.24183 14.664 0.8 14.664C0.358172 14.664 0 14.3008 0 13.8529V12.6941C0 11.6632 0.531169 10.758 1.33117 10.2446C0.99701 9.77709 0.8 9.2022 0.8 8.58065C0.8 7.01277 2.0536 5.74176 3.6 5.74176C4.03403 5.74176 4.445 5.84189 4.81165 6.0206C4.80394 5.92869 4.8 5.83569 4.8 5.74176C4.8 3.9499 6.23269 2.49731 8 2.49731C9.76731 2.49731 11.2 3.9499 11.2 5.74176C11.2 5.83569 11.1961 5.92869 11.1883 6.0206C11.555 5.84189 11.966 5.74176 12.4 5.74176C13.9464 5.74176 15.2 7.01277 15.2 8.58065C15.2 9.2022 15.003 9.77709 14.6688 10.2446C15.4688 10.758 16 11.6632 16 12.6941V13.8529C16 14.3008 15.6418 14.664 15.2 14.664C14.7582 14.664 14.4 14.3008 14.4 13.8529V12.6941C14.4 11.9902 13.8372 11.4195 13.1429 11.4195H12.8C12.7526 11.4195 12.7062 11.4154 12.6611 11.4074C12.5751 11.4154 12.488 11.4195 12.4 11.4195C12.2642 11.4195 12.1306 11.4097 11.9999 11.3908L12 11.4195V12.3465V14.664C12 15.1119 11.6418 15.4751 11.2 15.4751C10.7582 15.4751 10.4 15.1119 10.4 14.664V12.3465V11.4195C10.4 10.0756 9.32548 8.9862 8 8.9862ZM8 7.36398C7.11634 7.36398 6.4 6.63769 6.4 5.74176C6.4 4.84583 7.11634 4.11954 8 4.11954C8.88366 4.11954 9.6 4.84583 9.6 5.74176C9.6 6.63769 8.88366 7.36398 8 7.36398ZM3.6 7.36398C2.93726 7.36398 2.4 7.9087 2.4 8.58065C2.4 9.25259 2.93726 9.79731 3.6 9.79731C4.26274 9.79731 4.8 9.25259 4.8 8.58065C4.8 7.9087 4.26274 7.36398 3.6 7.36398ZM12.4 7.36398C11.7373 7.36398 11.2 7.9087 11.2 8.58065C11.2 9.25259 11.7373 9.79731 12.4 9.79731C13.0627 9.79731 13.6 9.25259 13.6 8.58065C13.6 7.9087 13.0627 7.36398 12.4 7.36398Z" fill="#E0E0E0"/>
</svg>
