<svg width="425" height="356" viewBox="0 0 425 356" fill="none" xmlns="http://www.w3.org/2000/svg">
<path d="M410.217 184.576C410.217 232.317 390.731 275.351 359.486 306.282C328.913 336.877 286.581 355.368 239.881 355.368C193.518 355.368 151.186 336.54 120.277 306.282C89.0316 275.351 69.5454 232.317 69.5454 184.576C69.5454 90.103 145.81 13.7847 239.881 13.7847C333.952 13.7847 410.217 90.4392 410.217 184.576Z" fill="#F2F2F2"/>
<path d="M395.435 72.62C403.042 72.62 409.209 66.4485 409.209 58.8356C409.209 51.2227 403.042 45.0513 395.435 45.0513C387.827 45.0513 381.66 51.2227 381.66 58.8356C381.66 66.4485 387.827 72.62 395.435 72.62Z" fill="#F2F2F2"/>
<path d="M415.593 18.8274C420.788 18.8274 425 14.6128 425 9.41371C425 4.21466 420.788 0 415.593 0C410.397 0 406.186 4.21466 406.186 9.41371C406.186 14.6128 410.397 18.8274 415.593 18.8274Z" fill="#F2F2F2"/>
<path d="M74.921 72.2835C80.1164 72.2835 84.3281 68.0688 84.3281 62.8698C84.3281 57.6707 80.1164 53.4561 74.921 53.4561C69.7256 53.4561 65.5139 57.6707 65.5139 62.8698C65.5139 68.0688 69.7256 72.2835 74.921 72.2835Z" fill="#F2F2F2"/>
<path d="M17.4704 253.834C27.119 253.834 34.9407 246.007 34.9407 236.352C34.9407 226.696 27.119 218.869 17.4704 218.869C7.82174 218.869 0 226.696 0 236.352C0 246.007 7.82174 253.834 17.4704 253.834Z" fill="#F2F2F2"/>
<g filter="url(#filter0_d)">
<path d="M392.137 86.6826V272.956C392.137 280.709 385.936 286.851 378.333 286.851H97.951C90.3487 286.851 84.0469 280.608 84.0469 272.956V86.6826C84.0469 79.0303 90.2487 72.7876 97.951 72.7876H378.333C385.936 72.7876 392.137 79.0303 392.137 86.6826Z" fill="url(#paint0_linear)"/>
</g>
<path d="M392.137 86.6826V107.525H84.0469V86.6826C84.0469 79.0303 90.2487 72.7876 97.951 72.7876H378.333C385.936 72.7876 392.137 79.0303 392.137 86.6826Z" fill="#E0E0E0"/>
<path d="M103.453 95.3417C106.325 95.3417 108.654 92.9975 108.654 90.1059C108.654 87.2143 106.325 84.8701 103.453 84.8701C100.58 84.8701 98.251 87.2143 98.251 90.1059C98.251 92.9975 100.58 95.3417 103.453 95.3417Z" fill="#BDBDBD"/>
<path d="M120.457 95.3417C123.33 95.3417 125.659 92.9975 125.659 90.1059C125.659 87.2143 123.33 84.8701 120.457 84.8701C117.585 84.8701 115.256 87.2143 115.256 90.1059C115.256 92.9975 117.585 95.3417 120.457 95.3417Z" fill="#BDBDBD"/>
<path d="M137.362 95.3417C140.235 95.3417 142.564 92.9975 142.564 90.1059C142.564 87.2143 140.235 84.8701 137.362 84.8701C134.49 84.8701 132.161 87.2143 132.161 90.1059C132.161 92.9975 134.49 95.3417 137.362 95.3417Z" fill="#BDBDBD"/>
<path d="M148.366 234.392H327.818" stroke="#E0E0E0" stroke-width="2" stroke-miterlimit="10" stroke-linecap="round" stroke-linejoin="round"/>
<path d="M176.674 253.624H299.51" stroke="#E0E0E0" stroke-width="2" stroke-miterlimit="10" stroke-linecap="round" stroke-linejoin="round"/>
<path d="M208.083 180.221V190.592H201.781V200.56H189.978V190.592H163.97V178.711L188.077 144.98H201.881V180.322H208.083V180.221ZM189.978 158.775L174.973 180.221H189.978V158.775Z" fill="#4F4F4F"/>
<path d="M237.692 201.668C225.088 201.668 213.985 190.592 213.985 172.67C213.985 154.747 224.988 143.671 237.692 143.671C250.396 143.671 261.399 154.747 261.399 172.67C261.399 190.592 250.396 201.668 237.692 201.668ZM237.692 190.995C243.594 190.995 249.495 185.054 249.495 172.77C249.495 160.486 243.594 154.546 237.692 154.546C231.79 154.546 225.888 160.486 225.888 172.77C225.888 185.054 231.79 190.995 237.692 190.995Z" fill="#4F4F4F"/>
<path d="M312.314 180.221V190.592H306.012V200.56H294.209V190.592H268.201V178.711L292.308 144.98H306.112V180.322H312.314V180.221ZM294.108 158.775L279.104 180.221H294.108V158.775Z" fill="#4F4F4F"/>
<path d="M378.515 327.983L311.5 260.974L326.863 245.6L393.825 312.662L378.515 327.983Z" fill="#333333"/>
<path d="M401.811 351.56L350.424 300.137C346.133 295.843 346.133 288.845 350.424 284.551C354.715 280.257 361.708 280.257 365.999 284.551L417.386 335.974C421.677 340.268 421.677 347.266 417.386 351.56C413.094 355.854 406.102 355.854 401.811 351.56Z" fill="#333333"/>
<path d="M398.155 354.847L332.041 288.686C330.505 287.149 330.505 284.657 332.041 283.067L348.94 266.155C350.477 264.618 352.966 264.618 354.556 266.155L420.67 332.316C422.206 333.853 422.206 336.345 420.67 337.935L403.771 354.847C402.181 356.384 399.691 356.384 398.155 354.847Z" fill="url(#paint1_linear)"/>
<path d="M235.638 45.0508C165.497 45.0508 108.654 101.934 108.654 172.124C108.654 242.26 165.497 299.197 235.585 299.197C305.725 299.197 362.569 242.313 362.569 172.124C362.569 101.934 305.725 45.0508 235.638 45.0508ZM235.638 275.659C179.324 275.659 133.712 229.272 133.712 172.071C133.712 114.869 179.324 68.5357 235.638 68.5357C291.952 68.5357 337.564 114.922 337.564 172.124C337.564 229.325 291.899 275.659 235.638 275.659Z" fill="url(#paint2_linear)"/>
<defs>
<filter id="filter0_d" x="62.0469" y="61.7876" width="352.091" height="258.063" filterUnits="userSpaceOnUse" color-interpolation-filters="sRGB">
<feFlood flood-opacity="0" result="BackgroundImageFix"/>
<feColorMatrix in="SourceAlpha" type="matrix" values="0 0 0 0 0 0 0 0 0 0 0 0 0 0 0 0 0 0 127 0"/>
<feOffset dy="11"/>
<feGaussianBlur stdDeviation="11"/>
<feColorMatrix type="matrix" values="0 0 0 0 0.397708 0 0 0 0 0.47749 0 0 0 0 0.575 0 0 0 0.27 0"/>
<feBlend mode="normal" in2="BackgroundImageFix" result="effect1_dropShadow"/>
<feBlend mode="normal" in="SourceGraphic" in2="effect1_dropShadow" result="shape"/>
</filter>
<linearGradient id="paint0_linear" x1="237.992" y1="67.8361" x2="237.992" y2="289.158" gradientUnits="userSpaceOnUse">
<stop stop-color="#FDFEFF"/>
<stop offset="0.9964" stop-color="#ECF0F5"/>
</linearGradient>
<linearGradient id="paint1_linear" x1="376.355" y1="265.002" x2="376.355" y2="356" gradientUnits="userSpaceOnUse">
<stop stop-color="#30ADF2"/>
<stop offset="1" stop-color="#0399DD"/>
</linearGradient>
<linearGradient id="paint2_linear" x1="235.611" y1="45.0508" x2="235.611" y2="299.197" gradientUnits="userSpaceOnUse">
<stop stop-color="#30ADF2"/>
<stop offset="1" stop-color="#0399DD"/>
</linearGradient>
</defs>
</svg>
