<svg width="201" height="156" viewBox="0 0 201 156" fill="none" xmlns="http://www.w3.org/2000/svg">
<path d="M179.419 117.441C182.78 117.441 185.504 114.695 185.504 111.307C185.504 107.919 182.78 105.173 179.419 105.173C176.059 105.173 173.335 107.919 173.335 111.307C173.335 114.695 176.059 117.441 179.419 117.441Z" fill="#F2F2F2"/>
<path d="M167.734 134.555C170.029 134.555 171.89 132.679 171.89 130.366C171.89 128.052 170.029 126.177 167.734 126.177C165.439 126.177 163.579 128.052 163.579 130.366C163.579 132.679 165.439 134.555 167.734 134.555Z" fill="#F2F2F2"/>
<path d="M33.0938 32.1654C35.3887 32.1654 37.249 30.2899 37.249 27.9764C37.249 25.6629 35.3887 23.7874 33.0938 23.7874C30.7989 23.7874 28.9385 25.6629 28.9385 27.9764C28.9385 30.2899 30.7989 32.1654 33.0938 32.1654Z" fill="#F2F2F2"/>
<path d="M7.71695 112.953C11.9789 112.953 15.4339 109.47 15.4339 105.173C15.4339 100.877 11.9789 97.3937 7.71695 97.3937C3.455 97.3937 0 100.877 0 105.173C0 109.47 3.455 112.953 7.71695 112.953Z" fill="#F2F2F2"/>
<path d="M101.434 152C142.986 152 176.674 118.039 176.674 76C176.674 33.9606 142.986 0 101.434 0C59.8808 0 26.1934 33.9606 26.1934 76C26.1934 118.039 59.8808 152 101.434 152Z" fill="#F2F2F2"/>
<path d="M145.128 11.4232C147.366 11.4232 149.26 13.1502 149.26 15.5679V137.836C149.26 140.081 147.539 141.981 145.128 141.981H55.4364C53.1984 141.981 51.3047 140.254 51.3047 137.836V15.5679C51.3047 13.3229 53.0262 11.4232 55.4364 11.4232H145.128Z" fill="#E0E0E0"/>
<path d="M149.26 24.2026V137.663C149.26 139.908 147.539 141.808 145.129 141.808H63.1836L55.9531 134.555L137.382 22.1303L144.44 19.5399L149.26 24.2026Z" fill="#BDBDBD"/>
<path d="M144.784 20.9214C144.784 20.2306 144.268 19.5399 143.407 19.5399H57.3304C56.6417 19.5399 55.9531 20.0579 55.9531 20.9214V133.173C55.9531 133.864 56.4696 134.555 57.3304 134.555H143.235C143.924 134.555 144.612 134.037 144.612 133.173L144.784 20.9214Z" fill="#DEDEDE"/>
<path d="M144.784 20.9214C144.784 20.2306 144.268 19.5399 143.407 19.5399H57.3301C56.6415 19.5399 55.9528 20.0579 55.9528 20.9214C56.9858 65.6494 57.3301 116.249 52.5098 129.374L134.971 128.165C139.964 105.369 143.751 64.4405 144.784 20.9214Z" fill="white"/>
<g filter="url(#filter0_d)">
<path d="M144.611 19.7125C144.611 19.7125 144.439 26.4476 142.373 69.4486C142.373 69.794 142.373 69.9667 142.373 70.3121C139.791 112.45 102.606 121.257 98.1299 121.775C96.064 121.948 92.1045 122.293 85.0462 122.293C76.2663 122.639 62.8384 122.811 41.8356 122.984C41.147 122.984 40.6305 122.293 40.9748 121.602C55.4357 92.4171 55.6079 19.8852 55.6079 19.8852L144.611 19.7125Z" fill="white"/>
</g>
<path d="M142.202 70.1395C139.792 112.277 102.435 121.085 97.9587 121.603C95.8928 121.775 91.9333 122.121 84.875 122.121C103.468 113.486 113.453 97.9434 113.28 85.8548C122.232 86.5455 137.726 85.8548 142.202 70.1395Z" fill="#F2F2F2"/>
<path d="M121.199 11.7686C121.199 11.5959 121.199 11.5959 121.199 11.7686L120.339 10.9051C120.339 10.9051 119.822 11.0778 119.65 11.4232H106.222C106.222 11.0778 106.222 10.9051 106.222 10.5598C106.222 7.79663 103.812 5.37891 101.057 5.37891C98.3028 5.37891 95.8927 7.79663 95.8927 10.5598C95.8927 10.9051 95.8927 11.0778 96.0648 11.2505H82.1204C81.4318 11.2505 80.7432 11.7686 80.7432 12.8048V17.2949C80.7432 20.7487 83.1533 22.8211 86.4242 22.8211H115.002C118.445 22.8211 121.371 20.7487 121.371 17.2949V12.6321C121.544 12.2867 121.371 11.9413 121.199 11.7686Z" fill="#4F4F4F"/>
<path d="M120.683 11.7686V16.2587C120.683 16.604 120.683 16.7767 120.683 17.1221C120.167 20.0579 117.757 22.4757 114.658 22.4757H85.9082C82.8094 22.4757 80.3993 20.0579 79.8828 17.1221C79.8828 16.7767 79.8828 16.604 79.8828 16.2587V11.7686C79.8828 11.0778 80.3993 10.2143 81.26 10.2143H95.3766C95.3766 9.86895 95.3766 9.69625 95.3766 9.52356C95.3766 6.76044 97.7868 4.34271 100.541 4.34271C103.296 4.34271 105.706 6.76044 105.706 9.52356C105.706 9.86895 105.706 10.0416 105.706 10.2143H119.822C120.167 10.387 120.683 10.9051 120.683 11.7686Z" fill="url(#paint0_linear)"/>
<path d="M100.196 11.9414C101.574 11.9414 102.606 10.9052 102.606 9.52362C102.606 8.14206 101.574 7.1059 100.196 7.1059C98.8191 7.1059 97.7861 8.14206 97.7861 9.52362C97.7861 10.9052 98.9912 11.9414 100.196 11.9414Z" fill="#F2F2F2"/>
<path d="M120.511 17.1221C119.995 20.0579 117.584 22.4757 114.486 22.4757H85.9082C82.8094 22.4757 80.3993 20.0579 79.8828 17.1221H120.511Z" fill="#828282"/>
<path d="M77.1284 69.6214C79.8829 69.6214 81.9487 67.3764 81.9487 64.786C81.9487 62.0228 79.7107 59.9505 77.1284 59.9505C74.374 59.9505 72.3081 62.1955 72.3081 64.786C72.136 67.3764 74.374 69.6214 77.1284 69.6214Z" fill="#828282"/>
<path d="M115.346 69.4487C118.1 69.4487 120.166 67.2037 120.166 64.6132C120.166 61.8501 117.928 59.7778 115.346 59.7778C112.763 59.7778 110.525 62.0228 110.525 64.6132C110.525 67.2037 112.591 69.4487 115.346 69.4487Z" fill="#828282"/>
<path d="M100.885 74.8022H91.5889V77.0472H100.885V74.8022Z" fill="#828282"/>
<defs>
<filter id="filter0_d" x="18.8652" y="8.71252" width="147.746" height="147.272" filterUnits="userSpaceOnUse" color-interpolation-filters="sRGB">
<feFlood flood-opacity="0" result="BackgroundImageFix"/>
<feColorMatrix in="SourceAlpha" type="matrix" values="0 0 0 0 0 0 0 0 0 0 0 0 0 0 0 0 0 0 127 0"/>
<feOffset dy="11"/>
<feGaussianBlur stdDeviation="11"/>
<feColorMatrix type="matrix" values="0 0 0 0 0.397708 0 0 0 0 0.47749 0 0 0 0 0.575 0 0 0 0.27 0"/>
<feBlend mode="normal" in2="BackgroundImageFix" result="effect1_dropShadow"/>
<feBlend mode="normal" in="SourceGraphic" in2="effect1_dropShadow" result="shape"/>
</filter>
<linearGradient id="paint0_linear" x1="79.932" y1="13.4114" x2="120.722" y2="13.4114" gradientUnits="userSpaceOnUse">
<stop stop-color="#D6D3D3"/>
<stop offset="1" stop-color="#959596"/>
</linearGradient>
</defs>
</svg>
