<svg width="24" height="24" viewBox="0 0 24 24" fill="none" xmlns="http://www.w3.org/2000/svg">
<path d="M7.85981 11.0601C7.76516 10.9662 7.71191 10.8384 7.71191 10.7051C7.71191 10.5717 7.76516 10.4439 7.85981 10.3501L8.05981 10.1501C8.15389 10.0524 8.28423 9.99809 8.41981 10.0001H15.5798C15.7154 9.99809 15.8457 10.0524 15.9398 10.1501L16.1398 10.3501C16.2345 10.4439 16.2877 10.5717 16.2877 10.7051C16.2877 10.8384 16.2345 10.9662 16.1398 11.0601L12.3498 14.8501C12.2591 14.9467 12.1324 15.0016 11.9998 15.0016C11.8672 15.0016 11.7405 14.9467 11.6498 14.8501L7.85981 11.0601Z" fill="#333333"/>
</svg>
