<svg width="89" height="89" viewBox="0 0 89 89" fill="none" xmlns="http://www.w3.org/2000/svg">
<g filter="url(#filter0_d)">
<path d="M60.9936 21.343C61.9288 22.8562 62.7917 24.5859 63.3662 26.1718C64.6581 30.209 64.5793 34.4647 63.2746 38.5059C61.8977 42.6194 59.2229 46.4464 55.2519 48.9772C46.0099 55.0505 33.6079 52.4734 27.5636 43.2506C21.5194 34.0277 23.9913 21.6177 33.3053 15.6164C36.6267 13.4473 40.3789 12.4316 44.2741 12.2812C51.0542 12.2705 57.396 15.7227 60.9936 21.343Z" fill="#EB5757"/>
<path d="M47.57 26.5574L44.3191 29.8083L41.0784 26.5676C40.4303 25.9195 39.3485 25.8491 38.6261 26.5715C37.9759 27.2217 37.9021 28.3037 38.6222 29.0239L41.8629 32.2645L38.612 35.5154C37.9618 36.1656 37.888 37.2476 38.6081 37.9678C39.3283 38.6879 40.3381 38.6863 41.0605 37.9639L44.3114 34.713L47.552 37.9537C48.2002 38.6018 49.282 38.6722 50.0044 37.9498C50.6546 37.2996 50.7284 36.2176 50.0083 35.4975L46.7676 32.2568L50.0185 29.0059C50.6687 28.3557 50.7425 27.2737 50.0224 26.5535C49.3022 25.8334 48.2202 25.9072 47.57 26.5574Z" fill="white"/>
</g>
<defs>
<filter id="filter0_d" x="-8" y="-8.00006" width="104.569" height="104.569" filterUnits="userSpaceOnUse" color-interpolation-filters="sRGB">
<feFlood flood-opacity="0" result="BackgroundImageFix"/>
<feColorMatrix in="SourceAlpha" type="matrix" values="0 0 0 0 0 0 0 0 0 0 0 0 0 0 0 0 0 0 127 0"/>
<feOffset dy="12"/>
<feGaussianBlur stdDeviation="12"/>
<feColorMatrix type="matrix" values="0 0 0 0 0.921569 0 0 0 0 0.341176 0 0 0 0 0.341176 0 0 0 0.15 0"/>
<feBlend mode="normal" in2="BackgroundImageFix" result="effect1_dropShadow"/>
<feBlend mode="normal" in="SourceGraphic" in2="effect1_dropShadow" result="shape"/>
</filter>
</defs>
</svg>
