<svg width="192" height="160" viewBox="0 0 192 160" fill="none" xmlns="http://www.w3.org/2000/svg">
<path d="M184.898 83.1031C184.898 104.598 176.144 123.973 162.108 137.9C148.373 151.675 129.356 160 108.378 160C87.5496 160 68.5328 151.523 54.6474 137.9C40.6112 123.973 31.8574 104.598 31.8574 83.1031C31.8574 40.5676 66.1179 6.20618 108.378 6.20618C150.637 6.20618 184.898 40.719 184.898 83.1031Z" fill="#F2F2F2"/>
<path d="M178.256 32.6962C181.674 32.6962 184.444 29.9176 184.444 26.49C184.444 23.0624 181.674 20.2838 178.256 20.2838C174.839 20.2838 172.068 23.0624 172.068 26.49C172.068 29.9176 174.839 32.6962 178.256 32.6962Z" fill="#F2F2F2"/>
<path d="M187.312 8.47682C189.646 8.47682 191.538 6.57922 191.538 4.23841C191.538 1.8976 189.646 0 187.312 0C184.978 0 183.086 1.8976 183.086 4.23841C183.086 6.57922 184.978 8.47682 187.312 8.47682Z" fill="#F2F2F2"/>
<path d="M34.2719 32.5449C36.6058 32.5449 38.4978 30.6473 38.4978 28.3065C38.4978 25.9657 36.6058 24.0681 34.2719 24.0681C31.9379 24.0681 30.0459 25.9657 30.0459 28.3065C30.0459 30.6473 31.9379 32.5449 34.2719 32.5449Z" fill="#F2F2F2"/>
<path d="M8.46345 114.286C12.7979 114.286 16.3117 110.762 16.3117 106.414C16.3117 102.067 12.7979 98.5431 8.46345 98.5431C4.129 98.5431 0.615234 102.067 0.615234 106.414C0.615234 110.762 4.129 114.286 8.46345 114.286Z" fill="#F2F2F2"/>
<path d="M162.108 42.8382V137.9C148.373 151.675 129.356 160 108.378 160C87.5496 160 68.5328 151.523 54.6475 137.9V42.8382H162.108Z" fill="white"/>
<path opacity="0.5" d="M110.276 91.3584L89.252 70.2725L82.1017 77.4438L103.126 98.5297L110.276 91.3584Z" fill="#27AE60"/>
<path opacity="0.5" d="M127.52 59.7901L96.1445 91.2584L103.295 98.4298L134.671 66.9615L127.52 59.7901Z" fill="#27AE60"/>
<path d="M135.846 111.41H80.9082V118.373H135.846V111.41Z" fill="#E0E0E0"/>
<path d="M135.846 126.698H80.9082V133.661H135.846V126.698Z" fill="#E0E0E0"/>
<path d="M122.413 142.138H94.3408V149.101H122.413V142.138Z" fill="#E0E0E0"/>
</svg>
