<svg width="12" height="12" viewBox="0 0 12 12" fill="none" xmlns="http://www.w3.org/2000/svg">
<path fill-rule="evenodd" clip-rule="evenodd" d="M6.5 1.5C7.90808 1.5 9.05543 2.17332 9.70355 2.82145C10.3549 3.47281 11 4.59581 11 6C11 7.40808 10.3267 8.55543 9.67855 9.20355C9.02719 9.85492 7.90419 10.5 6.5 10.5C6.22386 10.5 6 10.2761 6 10C6 9.72386 6.22386 9.5 6.5 9.5C7.59581 9.5 8.47471 8.99318 8.97145 8.49645C9.47142 7.99647 10 7.09192 10 6C10 4.90419 9.49318 4.02529 8.99645 3.52855C8.49647 3.02858 7.59192 2.5 6.5 2.5C5.40419 2.5 4.52529 3.00682 4.02855 3.50355C3.62022 3.91189 3.1928 4.59008 3.04984 5.41981L3.43765 5.10957C3.65328 4.93706 3.96793 4.97202 4.14043 5.18765C4.31294 5.40328 4.27798 5.71793 4.06235 5.89043L2.81235 6.89043C2.6134 7.04959 2.3266 7.03371 2.14645 6.85355L1.14645 5.85355C0.951184 5.65829 0.951184 5.34171 1.14645 5.14645C1.34171 4.95118 1.65829 4.95118 1.85355 5.14645L2.04929 5.34218C2.21581 4.23597 2.7775 3.34039 3.32145 2.79645C3.97281 2.14508 5.09581 1.5 6.5 1.5Z" fill="#333333" stroke="#333333" stroke-width="0.5"/>
</svg>
