<?xml version="1.0" encoding="UTF-8"?>
<svg fill="#FF2600" width="100pt" height="100pt" version="1.1" viewBox="0 0 100 100" xmlns="http://www.w3.org/2000/svg">
 <g>
  <path d="m65.277 56.062c-0.10156 4.5898-6.9023 8.293-15.277 8.293-8.3789 0-15.18-3.7031-15.277-8.293-12.82 1.1719-22.859 11.949-22.859 25.07 0 13.902 11.273 13.867 25.172 13.867h25.926c13.902 0 25.176 0.035156 25.176-13.867 0-13.121-10.039-23.898-22.859-25.07z"/>
  <path d="m50 55.273c-8.5039 0-15.531-9.2188-16.66-21.188h-2.3125c1.2852 13.633 9.2852 24.133 18.973 24.133 9.6836 0 17.688-10.504 18.973-24.133h-2.3125c-1.1328 11.969-8.1562 21.188-16.66 21.188z"/>
  <path d="m30.125 31.254h39.75c1.5508 0 2.8047-1.2539 2.8047-2.8047s-1.2539-2.8047-2.8047-2.8047h-0.76172c0-7.4492-4.2656-13.895-10.48-17.051l-1.5859 8.9805c-0.125 0.71094-0.74219 1.2109-1.4414 1.2109-0.085938 0-0.17188-0.007812-0.25781-0.019531-0.79688-0.14062-1.3281-0.89844-1.1875-1.6953l1.8086-10.258c-0.67969-1.0898-1.8828-1.8125-3.2578-1.8125h-5.4258c-1.3711 0-2.5742 0.72266-3.2578 1.8086l1.8086 10.258c0.14062 0.79688-0.39063 1.5586-1.1875 1.6953-0.085938 0.015625-0.17188 0.019531-0.25781 0.019531-0.69922 0-1.3164-0.5-1.4414-1.2109l-1.5859-8.9766c-6.2188 3.1523-10.48 9.6016-10.48 17.051h-0.76562c-1.5508 0-2.8047 1.2539-2.8047 2.8047 0.007812 1.5469 1.2617 2.8047 2.8125 2.8047z"/>
 </g>
</svg>
