<svg width="129" height="32" viewBox="0 0 129 32" fill="none" xmlns="http://www.w3.org/2000/svg">
<path d="M44.3902 19.4794C44.2842 20.6005 43.4359 23.6744 39.5836 23.6744C35.6253 23.6744 34.7417 20.6005 34.7417 18.3221C34.7417 14.8503 36.2261 12.355 39.7603 12.355C41.4214 12.355 44.1428 13.1144 44.3902 16.4777H41.5981C41.4921 15.7544 41.0327 14.6695 39.7603 14.7418C38.0285 14.7418 37.5691 16.5139 37.5691 17.852C37.5691 19.0092 37.6044 21.3599 39.6896 21.3599C41.1033 21.3599 41.5628 19.9857 41.5628 19.4794H44.3902Z" fill="#0099D8"/>
<path d="M53.049 17.9966C53.049 19.3709 52.6603 21.2876 50.5044 21.2876C48.3838 21.2876 47.9951 19.3709 47.9951 17.9966C47.9951 16.6224 48.3838 14.7418 50.5044 14.7418C52.6249 14.7418 53.049 16.6224 53.049 17.9966ZM55.8764 17.9966C55.8764 14.127 53.3318 12.355 50.5044 12.355C47.677 12.355 45.1323 14.127 45.1323 17.9966C45.1323 21.8662 47.677 23.6383 50.5044 23.6383C53.3318 23.6744 55.8764 21.9024 55.8764 17.9966Z" fill="#0099D8"/>
<path d="M66.7267 23.3851H63.9699V16.8755C63.9699 16.0799 63.9346 14.7418 62.1675 14.7418C60.9305 14.7418 60.0116 15.5736 60.0116 17.2371V23.3851H57.2549V12.6443H59.9056V14.2355H59.9409C60.3297 13.5845 61.1072 12.3911 63.0864 12.3911C65.1362 12.3911 66.7267 13.6207 66.7267 15.9714V23.3851Z" fill="#0099D8"/>
<path d="M79.344 11.451H71.8161V14.4888H78.7078V17.0565H71.8161V20.8175H79.6621V23.3852H68.918V8.8833H79.344V11.451Z" fill="#0099D8"/>
<path d="M83.5144 18.1052C83.5144 16.4055 84.1152 14.8143 85.847 14.8143C87.7555 14.8143 88.215 16.5501 88.215 18.286C88.215 19.8773 87.5081 21.36 85.7763 21.36C84.0092 21.36 83.5144 19.371 83.5144 18.1052ZM90.8656 8.8833H88.1089V14.0186H88.0736C87.6495 13.3315 86.8013 12.3551 85.0341 12.3551C82.7369 12.3551 80.687 14.1633 80.687 17.8882C80.687 20.8537 81.9947 23.6745 85.1048 23.6745C86.2358 23.6745 87.4728 23.2406 88.1443 22.0471H88.1796V23.3852H90.901L90.8656 8.8833Z" fill="#0099D8"/>
<path d="M95.6011 8.73853H92.8444V11.3785H95.6011V8.73853ZM92.8091 23.3851H95.5658V12.6443H92.8091V23.3851Z" fill="#0099D8"/>
<path d="M103.589 15.8991C103.483 15.212 103.236 14.4887 101.751 14.4887C100.267 14.4887 100.055 15.0673 100.055 15.5374C100.055 17.2372 106.628 16.0076 106.628 19.9495C106.628 23.0958 103.66 23.6383 102.034 23.6383C99.6307 23.6383 97.0507 22.8065 96.98 19.9133H99.8074C99.8074 20.8174 100.373 21.5046 102.105 21.5046C103.518 21.5046 103.872 20.7813 103.872 20.3835C103.872 18.5752 97.3687 19.9495 97.3687 15.9353C97.3687 14.344 98.323 12.355 101.61 12.355C103.66 12.355 106.098 12.8974 106.346 15.8991H103.589Z" fill="#0099D8"/>
<path d="M115.322 17.9966C115.322 19.3709 114.934 21.2876 112.778 21.2876C110.657 21.2876 110.269 19.3709 110.269 17.9966C110.269 16.6224 110.657 14.7418 112.778 14.7418C114.934 14.7418 115.322 16.6224 115.322 17.9966ZM118.15 17.9966C118.15 14.127 115.605 12.355 112.778 12.355C109.95 12.355 107.406 14.127 107.406 17.9966C107.406 21.8662 109.95 23.6383 112.778 23.6383C115.605 23.6744 118.15 21.9024 118.15 17.9966Z" fill="#0099D8"/>
<path d="M129 23.3851H126.243V16.8755C126.243 16.0799 126.208 14.7418 124.441 14.7418C123.204 14.7418 122.285 15.5736 122.285 17.2371V23.3851H119.528V12.6443H122.179V14.2355H122.214C122.603 13.5845 123.381 12.3911 125.36 12.3911C127.41 12.3911 129 13.6207 129 15.9714V23.3851Z" fill="#0099D8"/>
<path d="M29.617 25.555H12.4052C7.31589 25.555 3.18082 21.3238 3.18082 16.1161C3.18082 10.9084 7.31589 6.67719 12.4052 6.67719H29.617V3.38623H12.4052C5.54877 3.38623 0 9.1002 0 16.0799C0 23.0958 5.58411 28.7736 12.4052 28.7736H29.617V25.555Z" fill="#0099D8"/>
<path d="M5.54883 16.1524C5.54883 20.1666 8.76499 23.4576 12.688 23.4576H29.5817V20.1666H12.688C10.5321 20.1666 8.76499 18.3584 8.76499 16.1524C8.76499 13.9464 10.5321 12.1381 12.688 12.1381H29.5817V8.84717H12.688C8.76499 8.84717 5.54883 12.102 5.54883 16.1524Z" fill="#0099D8"/>
<path d="M29.6172 14.4888H12.5821C11.6985 14.4888 10.9917 15.2121 10.9917 16.1162C10.9917 17.0203 11.6985 17.7436 12.5821 17.7436H29.6172V14.4888Z" fill="#0099D8"/>
</svg>
